<?xml version="1.0" encoding="UTF-8"?>
<svg width="34px" height="34px" viewBox="0 0 34 34" version="1.1" xmlns="http://www.w3.org/2000/svg" xmlns:xlink="http://www.w3.org/1999/xlink">
    <title>B1CE5E5A-D22F-4B2D-8DA9-C40EAF975845</title>
    <defs>
        <filter id="filter-1">
            <feColorMatrix in="SourceGraphic" type="matrix" values="0 0 0 0 0.000000 0 0 0 0 0.192157 0 0 0 0 0.529412 0 0 0 1.000000 0"></feColorMatrix>
        </filter>
    </defs>
    <g id="Page-1" stroke="none" stroke-width="1" fill="none" fill-rule="evenodd" stroke-linecap="round" stroke-linejoin="round">
        <g id="Group-5" transform="translate(-59.000000, -1701.000000)" filter="url(#filter-1)">
            <g transform="translate(60.000000, 1702.000000)">
                <path d="M19.0608,19.2641 C17.2148,21.1331 14.2078,21.1511 12.3398,19.3061 C10.4698,17.4581 10.4518,14.4511 12.2978,12.5821 C14.1458,10.7121 17.1498,10.6961 19.0208,12.5441 C20.8888,14.3891 20.9088,17.3941 19.0608,19.2641 Z" id="Stroke-1" stroke="#709E18" stroke-width="2"></path>
                <path d="M31.3943,13.0687 L28.5813,13.0547 C28.2663,11.4927 27.6663,9.9807 26.7753,8.5997 L28.7703,6.6277 L24.9243,2.7337 L22.9283,4.7057 C21.5573,3.7977 20.0533,3.1797 18.4963,2.8467 L18.5153,0.0297 L13.0363,-0.0003 L13.0213,2.8097 C11.4633,3.1307 9.9453,3.7307 8.5673,4.6157 L6.5963,2.6217 L2.6993,6.4727 L4.6693,8.4667 C3.7633,9.8387 3.1503,11.3407 2.8103,12.8967 L0.0003,12.8807 L0.0003,18.7567 L2.8103,18.7407 C3.1503,20.2967 3.7633,21.7987 4.6693,23.1707 L2.6993,25.1647 L6.5963,29.0157 L8.5673,27.0217 C9.9453,27.9067 11.4633,28.5067 13.0213,28.8277 L13.0363,31.6377 L18.5153,31.6077 L18.4963,28.7907 C20.0533,28.4577 21.5573,27.8397 22.9283,26.9317 L24.9243,28.9037 L28.7703,25.0097 L26.7753,23.0377 C27.6663,21.6567 28.2663,20.1447 28.5813,18.5827 L31.3943,18.5687 L31.3943,13.0687 Z" id="Stroke-3" stroke="#709E18" stroke-width="2"></path>
            </g>
        </g>
    </g>
</svg>